<svg width="1439.4" height="140.551" viewBox="0 0 1439.4 140.551" xmlns="http://www.w3.org/2000/svg">
	<g id="svgGroup" stroke-linecap="round" fill-rule="evenodd" font-size="9pt" stroke="#000" stroke-width="0.25mm" fill="none" style="stroke:#000;stroke-width:0.25mm;fill:none">
		<path d="M 7.2 107.85 L 0 6.45 L 0 6.15 A 2.986 2.986 0 0 1 0 6.125 Q 0.014 4.512 1.775 4.501 A 3.897 3.897 0 0 1 1.8 4.5 L 19.5 4.5 A 2.375 2.375 0 0 1 20.153 4.582 Q 21.15 4.868 21.15 6.15 L 22.8 60.15 A 1.994 1.994 0 0 0 22.866 60.368 Q 22.948 60.583 23.059 60.677 A 0.289 0.289 0 0 0 23.25 60.75 Q 23.55 60.75 23.7 60.15 L 38.25 6.15 Q 38.7 4.5 40.35 4.5 L 55.05 4.5 A 2.375 2.375 0 0 1 55.703 4.582 Q 56.7 4.868 56.7 6.15 L 58.65 60.15 A 1.436 1.436 0 0 0 58.663 60.354 Q 58.698 60.594 58.823 60.689 A 0.325 0.325 0 0 0 59.025 60.75 Q 59.397 60.75 59.548 60.159 A 2.078 2.078 0 0 0 59.55 60.15 L 73.5 6.15 Q 73.95 4.5 75.6 4.5 L 92.85 4.5 A 2.392 2.392 0 0 1 93.409 4.56 Q 94.526 4.829 94.227 6.327 A 4.309 4.309 0 0 1 94.2 6.45 L 63.3 107.85 Q 62.85 109.5 61.2 109.5 L 45.45 109.5 A 2.375 2.375 0 0 1 44.797 109.419 Q 43.8 109.133 43.8 107.85 L 42 52.35 Q 42 51.75 41.7 51.75 A 0.362 0.362 0 0 0 41.494 51.821 Q 41.36 51.913 41.226 52.125 A 2.582 2.582 0 0 0 41.1 52.35 L 26.55 107.85 Q 26.1 109.5 24.45 109.5 L 9 109.5 A 2.846 2.846 0 0 1 8.31 109.424 Q 7.414 109.2 7.241 108.312 A 2.42 2.42 0 0 1 7.2 107.85 Z" id="1" vector-effect="non-scaling-stroke"/>
		<path d="M 138.9 77.55 L 106.8 77.55 A 0.716 0.716 0 0 0 106.29 77.761 A 0.939 0.939 0 0 0 106.275 77.775 Q 106.05 78 106.05 78.3 L 105.3 83.85 A 12.955 12.955 0 0 0 105.213 84.984 Q 105.165 86.486 105.507 87.761 A 7.335 7.335 0 0 0 106.575 90.075 A 5.91 5.91 0 0 0 108.257 91.723 Q 109.463 92.486 111.032 92.545 A 7.07 7.07 0 0 0 111.3 92.55 A 6.736 6.736 0 0 0 116.025 90.675 A 10.495 10.495 0 0 0 118.707 86.648 A 12.614 12.614 0 0 0 118.95 85.95 A 2.862 2.862 0 0 1 119.379 85.2 Q 119.989 84.45 121.05 84.45 L 137.7 85.35 A 1.694 1.694 0 0 1 138.162 85.41 A 1.19 1.19 0 0 1 138.825 85.875 A 1.403 1.403 0 0 1 139.055 86.419 Q 139.115 86.716 139.079 87.081 A 3.323 3.323 0 0 1 139.05 87.3 A 37.032 37.032 0 0 1 136.533 95.172 A 25.491 25.491 0 0 1 129.15 104.775 A 25.977 25.977 0 0 1 119.742 109.399 Q 114.956 110.7 109.05 110.7 A 40.627 40.627 0 0 1 101.934 110.117 Q 98.041 109.424 94.951 107.906 A 19.765 19.765 0 0 1 90.75 105.15 Q 84.3 99.6 84.3 89.55 A 17.264 17.264 0 0 1 84.319 88.791 Q 84.357 87.921 84.476 86.692 A 82.338 82.338 0 0 1 84.6 85.5 L 88.2 56.4 A 29.481 29.481 0 0 1 91.127 46.412 A 26.336 26.336 0 0 1 97.8 38.1 A 29.123 29.123 0 0 1 111.537 31.825 A 40.51 40.51 0 0 1 118.8 31.2 Q 127.521 31.2 133.367 34.409 A 20.064 20.064 0 0 1 137.025 36.975 A 18.996 18.996 0 0 1 143.339 49.226 A 26.964 26.964 0 0 1 143.55 52.65 A 12.333 12.333 0 0 1 143.532 53.256 Q 143.49 54.097 143.347 55.493 A 107.438 107.438 0 0 1 143.25 56.4 L 140.85 75.75 Q 140.7 76.5 140.175 77.025 A 1.733 1.733 0 0 1 138.923 77.55 A 2.124 2.124 0 0 1 138.9 77.55 Z M 108.6 57.9 L 107.85 63.75 A 1.376 1.376 0 0 0 107.875 64.024 Q 107.961 64.446 108.346 64.494 A 0.84 0.84 0 0 0 108.45 64.5 L 121.05 64.5 A 0.716 0.716 0 0 0 121.56 64.29 A 0.939 0.939 0 0 0 121.575 64.275 Q 121.8 64.05 121.8 63.75 L 122.55 57.9 Q 122.802 55.8 122.372 54.123 A 7.009 7.009 0 0 0 121.275 51.75 Q 119.636 49.47 116.846 49.356 A 7.269 7.269 0 0 0 116.55 49.35 A 6.829 6.829 0 0 0 111.801 51.254 A 9.314 9.314 0 0 0 111.3 51.75 A 9.964 9.964 0 0 0 108.945 56.083 A 13.148 13.148 0 0 0 108.6 57.9 Z" id="2" vector-effect="non-scaling-stroke"/>
		<path d="M 145.8 107.7 L 158.25 6.3 Q 158.4 5.55 158.925 5.025 A 1.733 1.733 0 0 1 160.177 4.501 A 2.124 2.124 0 0 1 160.2 4.5 L 177.3 4.5 A 1.732 1.732 0 0 1 177.86 4.587 A 1.443 1.443 0 0 1 178.5 5.025 A 1.362 1.362 0 0 1 178.838 5.939 Q 178.838 6.064 178.818 6.196 A 2.054 2.054 0 0 1 178.8 6.3 L 166.35 107.7 Q 166.2 108.45 165.675 108.975 A 1.733 1.733 0 0 1 164.423 109.5 A 2.124 2.124 0 0 1 164.4 109.5 L 147.3 109.5 Q 146.55 109.5 146.1 108.975 A 1.362 1.362 0 0 1 145.762 108.061 Q 145.763 107.937 145.782 107.805 A 2.054 2.054 0 0 1 145.8 107.7 Z" id="3" vector-effect="non-scaling-stroke"/>
		<path d="M 178.5 85.5 L 182.1 56.4 A 29.481 29.481 0 0 1 185.027 46.412 A 26.336 26.336 0 0 1 191.7 38.1 A 29.123 29.123 0 0 1 205.437 31.825 A 40.51 40.51 0 0 1 212.7 31.2 Q 221.421 31.2 227.267 34.409 A 20.064 20.064 0 0 1 230.925 36.975 A 19.027 19.027 0 0 1 237.406 50.675 A 26.12 26.12 0 0 1 237.45 52.2 Q 237.45 54.45 237.3 55.5 L 236.85 58.2 Q 236.7 58.95 236.175 59.475 A 1.733 1.733 0 0 1 234.923 60 A 2.124 2.124 0 0 1 234.9 60 L 217.8 60.75 Q 216.15 60.75 216.3 58.95 L 216.45 57.15 A 10.026 10.026 0 0 0 216.539 56.111 Q 216.621 53.487 215.175 51.6 Q 213.45 49.35 210.45 49.35 A 6.867 6.867 0 0 0 205.366 51.495 A 8.742 8.742 0 0 0 205.125 51.75 A 9.854 9.854 0 0 0 203.063 55.389 A 13.762 13.762 0 0 0 202.5 58.05 L 199.2 83.85 A 14.616 14.616 0 0 0 199.113 84.967 Q 199.058 86.41 199.326 87.623 A 7.127 7.127 0 0 0 200.4 90.15 Q 202.05 92.55 205.2 92.55 A 6.983 6.983 0 0 0 210.094 90.575 A 9.324 9.324 0 0 0 210.45 90.225 Q 212.7 87.9 213.15 84.75 L 213.3 82.8 Q 213.45 82.05 214.05 81.525 A 2.139 2.139 0 0 1 214.719 81.12 A 1.952 1.952 0 0 1 215.4 81 L 232.35 81.15 A 1.732 1.732 0 0 1 232.91 81.237 A 1.443 1.443 0 0 1 233.55 81.675 A 1.362 1.362 0 0 1 233.888 82.589 Q 233.888 82.714 233.868 82.846 A 2.054 2.054 0 0 1 233.85 82.95 L 233.4 86.4 A 28.115 28.115 0 0 1 230.5 96.08 A 25.212 25.212 0 0 1 223.875 104.1 A 29.046 29.046 0 0 1 211.262 109.903 A 41.242 41.242 0 0 1 202.95 110.7 A 38.646 38.646 0 0 1 195.837 110.087 Q 191.805 109.331 188.63 107.644 A 19.755 19.755 0 0 1 184.8 105 A 18.668 18.668 0 0 1 178.704 93.722 A 27.075 27.075 0 0 1 178.35 89.25 Q 178.35 87.272 178.452 86.007 A 16.878 16.878 0 0 1 178.5 85.5 Z" id="4" vector-effect="non-scaling-stroke"/>
		<path d="M 241.65 85.5 L 245.25 56.4 A 29.167 29.167 0 0 1 248.269 46.269 A 26.358 26.358 0 0 1 254.925 38.1 A 29.5 29.5 0 0 1 268.82 31.809 A 40.697 40.697 0 0 1 276 31.2 A 39.247 39.247 0 0 1 283.211 31.822 Q 287.358 32.598 290.624 34.342 A 20.315 20.315 0 0 1 294.45 36.975 A 18.982 18.982 0 0 1 300.872 49.513 A 26.902 26.902 0 0 1 301.05 52.65 Q 301.05 54 300.75 56.4 L 297.15 85.5 A 31.473 31.473 0 0 1 294.56 94.79 A 25.834 25.834 0 0 1 287.475 103.95 Q 282.342 108.189 275.286 109.766 A 41.391 41.391 0 0 1 266.25 110.7 A 38.778 38.778 0 0 1 259.129 110.087 Q 255.034 109.321 251.806 107.6 A 20.1 20.1 0 0 1 248.025 105 A 18.667 18.667 0 0 1 241.812 93.439 A 27.018 27.018 0 0 1 241.5 89.25 Q 241.5 87.272 241.602 86.007 A 16.878 16.878 0 0 1 241.65 85.5 Z M 276.75 83.85 L 280.05 57.9 Q 280.5 54.15 278.7 51.75 A 5.738 5.738 0 0 0 274.516 49.388 A 7.653 7.653 0 0 0 273.75 49.35 A 7.094 7.094 0 0 0 268.563 51.531 A 9.197 9.197 0 0 0 268.35 51.75 A 9.964 9.964 0 0 0 265.995 56.083 A 13.148 13.148 0 0 0 265.65 57.9 L 262.35 83.85 Q 262.098 85.951 262.528 87.628 A 7.009 7.009 0 0 0 263.625 90 A 5.515 5.515 0 0 0 267.642 92.353 A 7.543 7.543 0 0 0 268.5 92.4 A 7.334 7.334 0 0 0 273.811 90.166 A 9.695 9.695 0 0 0 273.975 90 A 9.862 9.862 0 0 0 276.463 85.426 A 12.861 12.861 0 0 0 276.75 83.85 Z" id="5" vector-effect="non-scaling-stroke"/>
		<path d="M 398.25 57.45 L 392.1 107.7 Q 391.95 108.45 391.425 108.975 A 1.733 1.733 0 0 1 390.173 109.5 A 2.124 2.124 0 0 1 390.15 109.5 L 373.05 109.5 A 1.732 1.732 0 0 1 372.49 109.414 A 1.443 1.443 0 0 1 371.85 108.975 A 1.362 1.362 0 0 1 371.512 108.061 Q 371.513 107.937 371.532 107.805 A 2.054 2.054 0 0 1 371.55 107.7 L 377.55 58.8 Q 377.7 58.05 377.7 56.55 Q 377.7 53.1 376.275 51.225 A 4.591 4.591 0 0 0 372.92 49.38 A 6.402 6.402 0 0 0 372.3 49.35 A 6.54 6.54 0 0 0 367.393 51.445 A 8.399 8.399 0 0 0 367.05 51.825 Q 365.345 53.835 364.629 57.18 A 20.998 20.998 0 0 0 364.35 58.8 L 358.35 107.7 Q 358.2 108.45 357.675 108.975 A 1.733 1.733 0 0 1 356.423 109.5 A 2.124 2.124 0 0 1 356.4 109.5 L 339.45 109.5 A 1.732 1.732 0 0 1 338.89 109.414 A 1.443 1.443 0 0 1 338.25 108.975 A 1.362 1.362 0 0 1 337.912 108.061 Q 337.913 107.937 337.932 107.805 A 2.054 2.054 0 0 1 337.95 107.7 L 343.95 58.8 Q 344.1 58.05 344.1 56.55 Q 344.1 53.1 342.675 51.225 A 4.591 4.591 0 0 0 339.32 49.38 A 6.402 6.402 0 0 0 338.7 49.35 A 6.54 6.54 0 0 0 333.793 51.445 A 8.399 8.399 0 0 0 333.45 51.825 Q 331.745 53.835 331.029 57.18 A 20.998 20.998 0 0 0 330.75 58.8 L 324.75 107.7 Q 324.6 108.45 324.075 108.975 A 1.733 1.733 0 0 1 322.823 109.5 A 2.124 2.124 0 0 1 322.8 109.5 L 305.7 109.5 Q 304.95 109.5 304.5 108.975 A 1.362 1.362 0 0 1 304.162 108.061 Q 304.163 107.937 304.182 107.805 A 2.054 2.054 0 0 1 304.2 107.7 L 313.2 34.2 Q 313.35 33.45 313.875 32.925 A 1.733 1.733 0 0 1 315.127 32.401 A 2.124 2.124 0 0 1 315.15 32.4 L 332.25 32.4 A 1.732 1.732 0 0 1 332.81 32.487 A 1.443 1.443 0 0 1 333.45 32.925 A 1.362 1.362 0 0 1 333.788 33.839 Q 333.788 33.964 333.768 34.096 A 2.054 2.054 0 0 1 333.75 34.2 L 333.45 36.15 A 1.829 1.829 0 0 0 333.463 36.378 Q 333.551 37.077 334.245 36.667 A 2.325 2.325 0 0 0 334.35 36.6 Q 337.65 33.6 341.25 32.4 Q 344.85 31.2 348 31.2 A 21.379 21.379 0 0 1 353.892 31.957 A 14.01 14.01 0 0 1 363.3 40.5 Q 363.3 40.634 363.536 40.649 A 1.01 1.01 0 0 0 363.6 40.65 Q 363.845 40.65 364.388 40.052 A 9.349 9.349 0 0 0 364.65 39.75 A 23.696 23.696 0 0 1 367.971 36.124 A 17.325 17.325 0 0 1 372.825 33.075 A 25.656 25.656 0 0 1 377.901 31.559 A 21.192 21.192 0 0 1 381.75 31.2 A 22.423 22.423 0 0 1 386.669 31.706 Q 391.613 32.818 394.5 36.375 A 17.158 17.158 0 0 1 397.515 42.166 Q 398.255 44.55 398.533 47.405 A 37.154 37.154 0 0 1 398.7 51 Q 398.7 54 398.25 57.45 Z" id="6" vector-effect="non-scaling-stroke"/>
		<path d="M 458.55 77.55 L 426.45 77.55 A 0.716 0.716 0 0 0 425.94 77.761 A 0.939 0.939 0 0 0 425.925 77.775 Q 425.7 78 425.7 78.3 L 424.95 83.85 A 12.955 12.955 0 0 0 424.863 84.984 Q 424.815 86.486 425.157 87.761 A 7.335 7.335 0 0 0 426.225 90.075 A 5.91 5.91 0 0 0 427.907 91.723 Q 429.113 92.486 430.682 92.545 A 7.07 7.07 0 0 0 430.95 92.55 A 6.736 6.736 0 0 0 435.675 90.675 A 10.495 10.495 0 0 0 438.357 86.648 A 12.614 12.614 0 0 0 438.6 85.95 A 2.862 2.862 0 0 1 439.029 85.2 Q 439.639 84.45 440.7 84.45 L 457.35 85.35 A 1.694 1.694 0 0 1 457.812 85.41 A 1.19 1.19 0 0 1 458.475 85.875 A 1.403 1.403 0 0 1 458.705 86.419 Q 458.765 86.716 458.729 87.081 A 3.323 3.323 0 0 1 458.7 87.3 A 37.032 37.032 0 0 1 456.183 95.172 A 25.491 25.491 0 0 1 448.8 104.775 A 25.977 25.977 0 0 1 439.392 109.399 Q 434.606 110.7 428.7 110.7 A 40.627 40.627 0 0 1 421.584 110.117 Q 417.691 109.424 414.601 107.906 A 19.765 19.765 0 0 1 410.4 105.15 Q 403.95 99.6 403.95 89.55 A 17.264 17.264 0 0 1 403.969 88.791 Q 404.007 87.921 404.126 86.692 A 82.338 82.338 0 0 1 404.25 85.5 L 407.85 56.4 A 29.481 29.481 0 0 1 410.777 46.412 A 26.336 26.336 0 0 1 417.45 38.1 A 29.123 29.123 0 0 1 431.187 31.825 A 40.51 40.51 0 0 1 438.45 31.2 Q 447.171 31.2 453.017 34.409 A 20.064 20.064 0 0 1 456.675 36.975 A 18.996 18.996 0 0 1 462.989 49.226 A 26.964 26.964 0 0 1 463.2 52.65 A 12.333 12.333 0 0 1 463.182 53.256 Q 463.14 54.097 462.997 55.493 A 107.438 107.438 0 0 1 462.9 56.4 L 460.5 75.75 Q 460.35 76.5 459.825 77.025 A 1.733 1.733 0 0 1 458.573 77.55 A 2.124 2.124 0 0 1 458.55 77.55 Z M 428.25 57.9 L 427.5 63.75 A 1.376 1.376 0 0 0 427.525 64.024 Q 427.611 64.446 427.996 64.494 A 0.84 0.84 0 0 0 428.1 64.5 L 440.7 64.5 A 0.716 0.716 0 0 0 441.21 64.29 A 0.939 0.939 0 0 0 441.225 64.275 Q 441.45 64.05 441.45 63.75 L 442.2 57.9 Q 442.452 55.8 442.022 54.123 A 7.009 7.009 0 0 0 440.925 51.75 Q 439.286 49.47 436.496 49.356 A 7.269 7.269 0 0 0 436.2 49.35 A 6.829 6.829 0 0 0 431.451 51.254 A 9.314 9.314 0 0 0 430.95 51.75 A 9.964 9.964 0 0 0 428.595 56.083 A 13.148 13.148 0 0 0 428.25 57.9 Z" id="7" vector-effect="non-scaling-stroke"/>
		<path d="M 534.9 47.25 L 526.65 47.25 A 0.716 0.716 0 0 0 526.14 47.461 A 0.939 0.939 0 0 0 526.125 47.475 Q 525.9 47.7 525.9 48 L 521.55 83.7 A 6.12 6.12 0 0 0 521.471 84.228 Q 521.41 84.782 521.401 85.545 A 22.766 22.766 0 0 0 521.4 85.8 A 10.911 10.911 0 0 0 521.495 87.295 Q 521.729 88.986 522.546 89.882 A 2.943 2.943 0 0 0 522.825 90.15 A 4.222 4.222 0 0 0 524.371 90.959 Q 525.441 91.275 526.875 91.204 A 11.333 11.333 0 0 0 526.95 91.2 L 528 91.2 A 1.732 1.732 0 0 1 528.56 91.287 A 1.443 1.443 0 0 1 529.2 91.725 A 1.362 1.362 0 0 1 529.538 92.639 Q 529.538 92.764 529.518 92.896 A 2.054 2.054 0 0 1 529.5 93 L 527.7 107.7 Q 527.55 108.45 527.025 108.975 A 1.733 1.733 0 0 1 525.773 109.5 A 2.124 2.124 0 0 1 525.75 109.5 L 519.9 109.5 Q 510.3 109.5 505.35 106.575 Q 501.069 104.046 500.49 97.645 A 23.288 23.288 0 0 1 500.4 95.55 A 12.333 12.333 0 0 1 500.418 94.945 Q 500.46 94.104 500.603 92.707 A 107.438 107.438 0 0 1 500.7 91.8 L 506.1 48 A 1.376 1.376 0 0 0 506.075 47.727 Q 505.989 47.304 505.604 47.257 A 0.84 0.84 0 0 0 505.5 47.25 L 500.7 47.25 A 1.732 1.732 0 0 1 500.14 47.164 A 1.443 1.443 0 0 1 499.5 46.725 A 1.362 1.362 0 0 1 499.162 45.811 Q 499.163 45.687 499.182 45.555 A 2.054 2.054 0 0 1 499.2 45.45 L 500.55 34.2 Q 500.7 33.45 501.225 32.925 A 1.733 1.733 0 0 1 502.477 32.401 A 2.124 2.124 0 0 1 502.5 32.4 L 507.3 32.4 A 1.08 1.08 0 0 0 507.597 32.363 Q 507.93 32.268 508.018 31.928 A 1.105 1.105 0 0 0 508.05 31.65 L 510.15 15 Q 510.3 14.25 510.825 13.725 A 1.733 1.733 0 0 1 512.077 13.201 A 2.124 2.124 0 0 1 512.1 13.2 L 528.45 13.2 A 1.732 1.732 0 0 1 529.01 13.287 A 1.443 1.443 0 0 1 529.65 13.725 A 1.362 1.362 0 0 1 529.988 14.639 Q 529.988 14.764 529.968 14.896 A 2.054 2.054 0 0 1 529.95 15 L 527.85 31.65 A 1.08 1.08 0 0 0 527.887 31.947 Q 527.983 32.28 528.322 32.368 A 1.105 1.105 0 0 0 528.6 32.4 L 536.7 32.4 A 1.732 1.732 0 0 1 537.26 32.487 A 1.443 1.443 0 0 1 537.9 32.925 A 1.362 1.362 0 0 1 538.238 33.839 Q 538.238 33.964 538.218 34.096 A 2.054 2.054 0 0 1 538.2 34.2 L 536.85 45.45 Q 536.7 46.2 536.175 46.725 A 1.733 1.733 0 0 1 534.923 47.25 A 2.124 2.124 0 0 1 534.9 47.25 Z" id="9" vector-effect="non-scaling-stroke"/>
		<path d="M 539.1 85.5 L 542.7 56.4 A 29.167 29.167 0 0 1 545.719 46.269 A 26.358 26.358 0 0 1 552.375 38.1 A 29.5 29.5 0 0 1 566.27 31.809 A 40.697 40.697 0 0 1 573.45 31.2 A 39.247 39.247 0 0 1 580.661 31.822 Q 584.808 32.598 588.074 34.342 A 20.315 20.315 0 0 1 591.9 36.975 A 18.982 18.982 0 0 1 598.322 49.513 A 26.902 26.902 0 0 1 598.5 52.65 Q 598.5 54 598.2 56.4 L 594.6 85.5 A 31.473 31.473 0 0 1 592.01 94.79 A 25.834 25.834 0 0 1 584.925 103.95 Q 579.792 108.189 572.736 109.766 A 41.391 41.391 0 0 1 563.7 110.7 A 38.778 38.778 0 0 1 556.579 110.087 Q 552.484 109.321 549.256 107.6 A 20.1 20.1 0 0 1 545.475 105 A 18.667 18.667 0 0 1 539.262 93.439 A 27.018 27.018 0 0 1 538.95 89.25 Q 538.95 87.272 539.052 86.007 A 16.878 16.878 0 0 1 539.1 85.5 Z M 574.2 83.85 L 577.5 57.9 Q 577.95 54.15 576.15 51.75 A 5.738 5.738 0 0 0 571.966 49.388 A 7.653 7.653 0 0 0 571.2 49.35 A 7.094 7.094 0 0 0 566.013 51.531 A 9.197 9.197 0 0 0 565.8 51.75 A 9.964 9.964 0 0 0 563.445 56.083 A 13.148 13.148 0 0 0 563.1 57.9 L 559.8 83.85 Q 559.548 85.951 559.978 87.628 A 7.009 7.009 0 0 0 561.075 90 A 5.515 5.515 0 0 0 565.092 92.353 A 7.543 7.543 0 0 0 565.95 92.4 A 7.334 7.334 0 0 0 571.261 90.166 A 9.695 9.695 0 0 0 571.425 90 A 9.862 9.862 0 0 0 573.913 85.426 A 12.861 12.861 0 0 0 574.2 83.85 Z" id="10" vector-effect="non-scaling-stroke"/>
		<path d="M 724.8 57.45 L 718.65 107.7 Q 718.5 108.45 717.975 108.975 A 1.733 1.733 0 0 1 716.723 109.5 A 2.124 2.124 0 0 1 716.7 109.5 L 699.6 109.5 A 1.732 1.732 0 0 1 699.04 109.414 A 1.443 1.443 0 0 1 698.4 108.975 A 1.362 1.362 0 0 1 698.062 108.061 Q 698.063 107.937 698.082 107.805 A 2.054 2.054 0 0 1 698.1 107.7 L 704.1 58.8 Q 704.25 58.05 704.25 56.55 Q 704.25 53.1 702.825 51.225 A 4.591 4.591 0 0 0 699.47 49.38 A 6.402 6.402 0 0 0 698.85 49.35 A 6.54 6.54 0 0 0 693.943 51.445 A 8.399 8.399 0 0 0 693.6 51.825 Q 691.895 53.835 691.179 57.18 A 20.998 20.998 0 0 0 690.9 58.8 L 684.9 107.7 Q 684.75 108.45 684.225 108.975 A 1.733 1.733 0 0 1 682.973 109.5 A 2.124 2.124 0 0 1 682.95 109.5 L 666 109.5 A 1.732 1.732 0 0 1 665.44 109.414 A 1.443 1.443 0 0 1 664.8 108.975 A 1.362 1.362 0 0 1 664.462 108.061 Q 664.463 107.937 664.482 107.805 A 2.054 2.054 0 0 1 664.5 107.7 L 670.5 58.8 Q 670.65 58.05 670.65 56.55 Q 670.65 53.1 669.225 51.225 A 4.591 4.591 0 0 0 665.87 49.38 A 6.402 6.402 0 0 0 665.25 49.35 A 6.54 6.54 0 0 0 660.343 51.445 A 8.399 8.399 0 0 0 660 51.825 Q 658.295 53.835 657.579 57.18 A 20.998 20.998 0 0 0 657.3 58.8 L 651.3 107.7 Q 651.15 108.45 650.625 108.975 A 1.733 1.733 0 0 1 649.373 109.5 A 2.124 2.124 0 0 1 649.35 109.5 L 632.25 109.5 Q 631.5 109.5 631.05 108.975 A 1.362 1.362 0 0 1 630.712 108.061 Q 630.713 107.937 630.732 107.805 A 2.054 2.054 0 0 1 630.75 107.7 L 639.75 34.2 Q 639.9 33.45 640.425 32.925 A 1.733 1.733 0 0 1 641.677 32.401 A 2.124 2.124 0 0 1 641.7 32.4 L 658.8 32.4 A 1.732 1.732 0 0 1 659.36 32.487 A 1.443 1.443 0 0 1 660 32.925 A 1.362 1.362 0 0 1 660.338 33.839 Q 660.338 33.964 660.318 34.096 A 2.054 2.054 0 0 1 660.3 34.2 L 660 36.15 A 1.829 1.829 0 0 0 660.013 36.378 Q 660.101 37.077 660.795 36.667 A 2.325 2.325 0 0 0 660.9 36.6 Q 664.2 33.6 667.8 32.4 Q 671.4 31.2 674.55 31.2 A 21.379 21.379 0 0 1 680.442 31.957 A 14.01 14.01 0 0 1 689.85 40.5 Q 689.85 40.634 690.086 40.649 A 1.01 1.01 0 0 0 690.15 40.65 Q 690.395 40.65 690.938 40.052 A 9.349 9.349 0 0 0 691.2 39.75 A 23.696 23.696 0 0 1 694.521 36.124 A 17.325 17.325 0 0 1 699.375 33.075 A 25.656 25.656 0 0 1 704.451 31.559 A 21.192 21.192 0 0 1 708.3 31.2 A 22.423 22.423 0 0 1 713.219 31.706 Q 718.163 32.818 721.05 36.375 A 17.158 17.158 0 0 1 724.065 42.166 Q 724.805 44.55 725.083 47.405 A 37.154 37.154 0 0 1 725.25 51 Q 725.25 54 724.8 57.45 Z" id="12" vector-effect="non-scaling-stroke"/>
		<path d="M 723.6 137.55 L 725.25 123.75 A 4.216 4.216 0 0 1 725.417 123.071 Q 725.803 121.95 726.75 121.95 A 39.775 39.775 0 0 0 730.654 121.694 Q 734.561 121.228 736.978 119.947 A 9.68 9.68 0 0 0 737.775 119.475 A 8.242 8.242 0 0 0 740.113 117.046 Q 741.63 114.72 742.466 110.865 A 33.334 33.334 0 0 0 742.65 109.95 L 742.65 109.05 L 733.5 34.2 L 733.5 33.9 A 2.16 2.16 0 0 1 733.597 33.223 Q 733.917 32.255 735.288 32.25 A 3.927 3.927 0 0 1 735.3 32.25 L 753.6 32.25 A 2.846 2.846 0 0 1 754.29 32.327 Q 755.186 32.551 755.359 33.439 A 2.42 2.42 0 0 1 755.4 33.9 L 756.6 78.45 A 1.436 1.436 0 0 0 756.613 78.654 Q 756.648 78.894 756.773 78.989 A 0.325 0.325 0 0 0 756.975 79.05 Q 757.347 79.05 757.498 78.459 A 2.078 2.078 0 0 0 757.5 78.45 L 769.35 33.9 Q 769.8 32.25 771.45 32.25 L 789.75 32.55 A 2.417 2.417 0 0 1 790.215 32.592 Q 790.755 32.698 791.025 33.075 Q 791.377 33.569 791.134 34.392 A 3.266 3.266 0 0 1 791.1 34.5 L 762.3 112.35 A 127.051 127.051 0 0 1 759.729 118.587 Q 756.873 124.99 754.125 128.775 A 22.849 22.849 0 0 1 743.89 136.638 A 27.365 27.365 0 0 1 743.475 136.8 A 31.946 31.946 0 0 1 738.34 138.239 Q 732.773 139.35 724.95 139.35 L 724.2 139.35 A 0.37 0.37 0 0 1 723.962 139.259 Q 723.837 139.156 723.728 138.94 A 2.057 2.057 0 0 1 723.675 138.825 Q 723.489 138.392 723.559 137.806 A 3.27 3.27 0 0 1 723.6 137.55 Z" id="13" vector-effect="non-scaling-stroke"/>
		<path d="M 821.25 82.35 L 827.4 31.65 A 34.849 34.849 0 0 1 830.284 21.022 A 29.324 29.324 0 0 1 837.825 11.025 A 31.467 31.467 0 0 1 855.539 3.529 A 41.637 41.637 0 0 1 859.95 3.3 A 34.845 34.845 0 0 1 867.838 4.143 A 23.428 23.428 0 0 1 878.775 9.825 A 21.61 21.61 0 0 1 885.392 22.656 A 30.897 30.897 0 0 1 885.75 27.45 A 18.549 18.549 0 0 1 885.731 28.229 Q 885.678 29.485 885.472 31.579 A 131.315 131.315 0 0 1 885.45 31.8 L 884.85 37.5 Q 884.7 38.25 884.1 38.775 A 2.139 2.139 0 0 1 883.431 39.181 A 1.952 1.952 0 0 1 882.75 39.3 L 865.8 39.3 A 1.732 1.732 0 0 1 865.24 39.214 A 1.443 1.443 0 0 1 864.6 38.775 A 1.362 1.362 0 0 1 864.262 37.861 Q 864.263 37.737 864.282 37.605 A 2.054 2.054 0 0 1 864.3 37.5 L 865.05 31.5 Q 865.175 31.002 865.196 30.088 A 16.871 16.871 0 0 0 865.2 29.7 Q 865.2 25.95 863.175 23.7 A 6.676 6.676 0 0 0 858.944 21.53 A 9.462 9.462 0 0 0 857.7 21.45 A 8.652 8.652 0 0 0 851.42 24.055 A 10.989 10.989 0 0 0 851.25 24.225 A 11.557 11.557 0 0 0 848.491 28.981 A 15.621 15.621 0 0 0 847.95 31.5 L 841.65 82.5 Q 841.417 84.83 841.827 86.697 A 8.439 8.439 0 0 0 843.15 89.775 A 6.294 6.294 0 0 0 847.722 92.483 A 9.092 9.092 0 0 0 848.85 92.55 A 8.842 8.842 0 0 0 855.323 89.904 A 10.615 10.615 0 0 0 855.45 89.775 A 11.557 11.557 0 0 0 858.209 85.02 A 15.621 15.621 0 0 0 858.75 82.5 L 860.25 70.5 A 1.376 1.376 0 0 0 860.225 70.227 Q 860.139 69.804 859.754 69.757 A 0.84 0.84 0 0 0 859.65 69.75 L 853.2 69.75 A 1.732 1.732 0 0 1 852.64 69.664 A 1.443 1.443 0 0 1 852 69.225 A 1.362 1.362 0 0 1 851.662 68.311 Q 851.663 68.187 851.682 68.055 A 2.054 2.054 0 0 1 851.7 67.95 L 853.35 54.6 A 1.614 1.614 0 0 1 853.869 53.4 A 2.165 2.165 0 0 1 853.95 53.325 A 2.139 2.139 0 0 1 854.619 52.92 A 1.952 1.952 0 0 1 855.3 52.8 L 881.1 52.8 A 2.16 2.16 0 0 1 881.778 52.898 Q 882.746 53.217 882.75 54.588 A 3.927 3.927 0 0 1 882.75 54.6 L 879.3 82.35 A 34.569 34.569 0 0 1 876.401 92.979 A 29.306 29.306 0 0 1 868.8 102.975 A 31.871 31.871 0 0 1 850.145 110.564 A 41.535 41.535 0 0 1 846.75 110.7 Q 834.75 110.7 827.85 104.25 A 21.305 21.305 0 0 1 821.381 91.96 A 30.737 30.737 0 0 1 820.95 86.7 Q 820.95 85.401 821.228 82.572 A 131.315 131.315 0 0 1 821.25 82.35 Z" id="15" vector-effect="non-scaling-stroke"/>
		<path d="M 886.95 107.7 L 895.95 34.2 Q 896.1 33.45 896.625 32.925 A 1.733 1.733 0 0 1 897.877 32.401 A 2.124 2.124 0 0 1 897.9 32.4 L 915 32.4 Q 915.75 32.4 916.2 32.925 A 1.362 1.362 0 0 1 916.538 33.839 Q 916.538 33.964 916.518 34.096 A 2.054 2.054 0 0 1 916.5 34.2 L 907.5 107.7 Q 907.35 108.45 906.825 108.975 A 1.733 1.733 0 0 1 905.573 109.5 A 2.124 2.124 0 0 1 905.55 109.5 L 888.45 109.5 A 1.732 1.732 0 0 1 887.89 109.414 A 1.443 1.443 0 0 1 887.25 108.975 A 1.362 1.362 0 0 1 886.912 108.061 Q 886.913 107.937 886.932 107.805 A 2.054 2.054 0 0 1 886.95 107.7 Z M 903.877 23.203 A 11.59 11.59 0 0 0 907.35 23.7 A 11.809 11.809 0 0 0 912.666 22.489 A 13.303 13.303 0 0 0 916.425 19.65 Q 920.25 15.6 920.25 9.9 A 12.887 12.887 0 0 0 920.059 7.637 A 9.037 9.037 0 0 0 917.55 2.7 A 8.891 8.891 0 0 0 913.29 0.349 A 12.937 12.937 0 0 0 910.2 0 A 15.924 15.924 0 0 0 909.941 0.003 A 12.462 12.462 0 0 0 900.9 3.825 A 12.613 12.613 0 0 0 897.814 8.985 A 15.67 15.67 0 0 0 897.15 13.65 Q 897.15 18 900 20.85 A 9.356 9.356 0 0 0 903.877 23.203 Z" id="16" vector-effect="non-scaling-stroke"/>
		<path d="M 958.2 47.25 L 949.95 47.25 A 0.716 0.716 0 0 0 949.44 47.461 A 0.939 0.939 0 0 0 949.425 47.475 Q 949.2 47.7 949.2 48 L 944.85 83.7 A 6.12 6.12 0 0 0 944.771 84.228 Q 944.71 84.782 944.701 85.545 A 22.766 22.766 0 0 0 944.7 85.8 A 10.911 10.911 0 0 0 944.795 87.295 Q 945.029 88.986 945.846 89.882 A 2.943 2.943 0 0 0 946.125 90.15 A 4.222 4.222 0 0 0 947.671 90.959 Q 948.741 91.275 950.175 91.204 A 11.333 11.333 0 0 0 950.25 91.2 L 951.3 91.2 A 1.732 1.732 0 0 1 951.86 91.287 A 1.443 1.443 0 0 1 952.5 91.725 A 1.362 1.362 0 0 1 952.838 92.639 Q 952.838 92.764 952.818 92.896 A 2.054 2.054 0 0 1 952.8 93 L 951 107.7 Q 950.85 108.45 950.325 108.975 A 1.733 1.733 0 0 1 949.073 109.5 A 2.124 2.124 0 0 1 949.05 109.5 L 943.2 109.5 Q 933.6 109.5 928.65 106.575 Q 924.369 104.046 923.79 97.645 A 23.288 23.288 0 0 1 923.7 95.55 A 12.333 12.333 0 0 1 923.718 94.945 Q 923.76 94.104 923.903 92.707 A 107.438 107.438 0 0 1 924 91.8 L 929.4 48 A 1.376 1.376 0 0 0 929.375 47.727 Q 929.289 47.304 928.904 47.257 A 0.84 0.84 0 0 0 928.8 47.25 L 924 47.25 A 1.732 1.732 0 0 1 923.44 47.164 A 1.443 1.443 0 0 1 922.8 46.725 A 1.362 1.362 0 0 1 922.462 45.811 Q 922.463 45.687 922.482 45.555 A 2.054 2.054 0 0 1 922.5 45.45 L 923.85 34.2 Q 924 33.45 924.525 32.925 A 1.733 1.733 0 0 1 925.777 32.401 A 2.124 2.124 0 0 1 925.8 32.4 L 930.6 32.4 A 1.08 1.08 0 0 0 930.897 32.363 Q 931.23 32.268 931.318 31.928 A 1.105 1.105 0 0 0 931.35 31.65 L 933.45 15 Q 933.6 14.25 934.125 13.725 A 1.733 1.733 0 0 1 935.377 13.201 A 2.124 2.124 0 0 1 935.4 13.2 L 951.75 13.2 A 1.732 1.732 0 0 1 952.31 13.287 A 1.443 1.443 0 0 1 952.95 13.725 A 1.362 1.362 0 0 1 953.288 14.639 Q 953.288 14.764 953.268 14.896 A 2.054 2.054 0 0 1 953.25 15 L 951.15 31.65 A 1.08 1.08 0 0 0 951.187 31.947 Q 951.283 32.28 951.622 32.368 A 1.105 1.105 0 0 0 951.9 32.4 L 960 32.4 A 1.732 1.732 0 0 1 960.56 32.487 A 1.443 1.443 0 0 1 961.2 32.925 A 1.362 1.362 0 0 1 961.538 33.839 Q 961.538 33.964 961.518 34.096 A 2.054 2.054 0 0 1 961.5 34.2 L 960.15 45.45 Q 960 46.2 959.475 46.725 A 1.733 1.733 0 0 1 958.223 47.25 A 2.124 2.124 0 0 1 958.2 47.25 Z" id="17" vector-effect="non-scaling-stroke"/>
		<path d="M 1021.5 56.85 L 1015.35 107.7 Q 1015.2 108.45 1014.675 108.975 A 1.733 1.733 0 0 1 1013.423 109.5 A 2.124 2.124 0 0 1 1013.4 109.5 L 996.3 109.5 A 1.732 1.732 0 0 1 995.74 109.414 A 1.443 1.443 0 0 1 995.1 108.975 A 1.362 1.362 0 0 1 994.762 108.061 Q 994.763 107.937 994.782 107.805 A 2.054 2.054 0 0 1 994.8 107.7 L 1000.8 58.5 Q 1000.95 57.75 1000.95 56.25 A 12.595 12.595 0 0 0 1000.721 53.732 Q 999.929 49.87 996.399 49.412 A 7.77 7.77 0 0 0 995.4 49.35 A 7.148 7.148 0 0 0 992.485 49.931 A 6.896 6.896 0 0 0 990 51.825 Q 988.295 53.835 987.579 57.18 A 20.998 20.998 0 0 0 987.3 58.8 L 981.3 107.7 Q 981.15 108.45 980.625 108.975 A 1.733 1.733 0 0 1 979.373 109.5 A 2.124 2.124 0 0 1 979.35 109.5 L 962.25 109.5 Q 961.5 109.5 961.05 108.975 A 1.362 1.362 0 0 1 960.712 108.061 Q 960.713 107.937 960.732 107.805 A 2.054 2.054 0 0 1 960.75 107.7 L 973.2 6.3 Q 973.35 5.55 973.875 5.025 A 1.733 1.733 0 0 1 975.127 4.501 A 2.124 2.124 0 0 1 975.15 4.5 L 992.25 4.5 A 1.732 1.732 0 0 1 992.81 4.587 A 1.443 1.443 0 0 1 993.45 5.025 A 1.362 1.362 0 0 1 993.788 5.939 Q 993.788 6.064 993.768 6.196 A 2.054 2.054 0 0 1 993.75 6.3 L 990 37.05 L 990 37.2 Q 990 37.49 990.348 37.43 A 0.934 0.934 0 0 0 990.375 37.425 A 1.053 1.053 0 0 0 990.654 37.323 Q 990.912 37.189 991.2 36.9 A 18.26 18.26 0 0 1 1004.472 31.204 A 22.769 22.769 0 0 1 1004.85 31.2 Q 1013.4 31.2 1017.675 36.225 Q 1021.134 40.291 1021.794 47.253 A 36.537 36.537 0 0 1 1021.95 50.7 Q 1021.95 53.7 1021.5 56.85 Z" id="18" vector-effect="non-scaling-stroke"/>
		<path d="M 1070.1 32.4 L 1087.2 32.4 A 1.732 1.732 0 0 1 1087.76 32.487 A 1.443 1.443 0 0 1 1088.4 32.925 A 1.362 1.362 0 0 1 1088.738 33.839 Q 1088.738 33.964 1088.718 34.096 A 2.054 2.054 0 0 1 1088.7 34.2 L 1079.7 107.7 Q 1079.55 108.45 1079.025 108.975 A 1.733 1.733 0 0 1 1077.773 109.5 A 2.124 2.124 0 0 1 1077.75 109.5 L 1060.65 109.5 A 1.732 1.732 0 0 1 1060.09 109.414 A 1.443 1.443 0 0 1 1059.45 108.975 A 1.362 1.362 0 0 1 1059.112 108.061 Q 1059.113 107.937 1059.132 107.805 A 2.054 2.054 0 0 1 1059.15 107.7 L 1059.45 105.15 A 1.151 1.151 0 0 0 1059.479 105.047 Q 1059.564 104.682 1059.3 104.55 A 0.356 0.356 0 0 0 1059.206 104.518 Q 1058.977 104.475 1058.748 104.782 A 1.571 1.571 0 0 0 1058.7 104.85 A 15.552 15.552 0 0 1 1049.63 110.1 A 23.54 23.54 0 0 1 1044.9 110.55 A 22.482 22.482 0 0 1 1039.137 109.848 A 16.744 16.744 0 0 1 1032.15 106.125 A 13.808 13.808 0 0 1 1028.252 99.982 Q 1027.512 97.722 1027.293 94.966 A 30.437 30.437 0 0 1 1027.2 92.55 Q 1027.2 91.251 1027.478 88.422 A 131.315 131.315 0 0 1 1027.5 88.2 L 1034.1 34.2 Q 1034.25 33.45 1034.775 32.925 A 1.733 1.733 0 0 1 1036.027 32.401 A 2.124 2.124 0 0 1 1036.05 32.4 L 1053.15 32.4 A 1.732 1.732 0 0 1 1053.71 32.487 A 1.443 1.443 0 0 1 1054.35 32.925 A 1.362 1.362 0 0 1 1054.688 33.839 Q 1054.688 33.964 1054.668 34.096 A 2.054 2.054 0 0 1 1054.65 34.2 L 1048.65 83.55 Q 1048.5 84.3 1048.5 85.8 A 12.229 12.229 0 0 0 1048.637 87.698 Q 1048.79 88.667 1049.112 89.449 A 5.33 5.33 0 0 0 1049.925 90.825 Q 1051.35 92.55 1054.05 92.55 A 6.917 6.917 0 0 0 1057.113 91.883 A 6.972 6.972 0 0 0 1059.45 90 Q 1061.55 87.45 1062.15 83.1 L 1068.15 34.2 Q 1068.3 33.45 1068.825 32.925 A 1.733 1.733 0 0 1 1070.077 32.401 A 2.124 2.124 0 0 1 1070.1 32.4 Z" id="19" vector-effect="non-scaling-stroke"/>
		<path d="M 1151.7 56.4 L 1148.1 85.5 A 46.197 46.197 0 0 1 1146.45 93.349 Q 1144.471 99.749 1140.675 104.025 A 19.519 19.519 0 0 1 1127.813 110.529 A 27.516 27.516 0 0 1 1124.7 110.7 A 18.864 18.864 0 0 1 1119.738 110.087 A 12.875 12.875 0 0 1 1112.4 105 A 1.088 1.088 0 0 0 1112.258 104.879 Q 1112.029 104.718 1111.8 104.775 Q 1111.537 104.841 1111.505 105.194 A 1.153 1.153 0 0 0 1111.5 105.3 L 1111.2 107.7 Q 1111.05 108.45 1110.525 108.975 A 1.733 1.733 0 0 1 1109.273 109.5 A 2.124 2.124 0 0 1 1109.25 109.5 L 1092.15 109.5 Q 1091.4 109.5 1090.95 108.975 A 1.362 1.362 0 0 1 1090.612 108.061 Q 1090.613 107.937 1090.632 107.805 A 2.054 2.054 0 0 1 1090.65 107.7 L 1103.1 6.3 Q 1103.25 5.55 1103.775 5.025 A 1.733 1.733 0 0 1 1105.027 4.501 A 2.124 2.124 0 0 1 1105.05 4.5 L 1122.15 4.5 A 1.732 1.732 0 0 1 1122.71 4.587 A 1.443 1.443 0 0 1 1123.35 5.025 A 1.362 1.362 0 0 1 1123.688 5.939 Q 1123.688 6.064 1123.668 6.196 A 2.054 2.054 0 0 1 1123.65 6.3 L 1119.9 36.75 L 1119.9 36.9 L 1119.975 36.975 L 1120.05 37.05 A 1.188 1.188 0 0 0 1120.511 36.949 Q 1120.869 36.799 1121.271 36.425 A 4.903 4.903 0 0 0 1121.4 36.3 Q 1126.8 31.2 1134.45 31.2 A 23.952 23.952 0 0 1 1139.585 31.716 Q 1144.567 32.81 1147.575 36.225 A 16.274 16.274 0 0 1 1150.824 42.132 Q 1152 45.828 1152 50.7 A 77.805 77.805 0 0 1 1151.981 52.463 Q 1151.925 54.938 1151.7 56.4 Z M 1117.5 55.95 L 1113.9 85.95 Q 1113.9 88.95 1115.55 90.75 Q 1117.2 92.55 1119.9 92.55 A 6.656 6.656 0 0 0 1124.73 90.511 A 9.038 9.038 0 0 0 1125.075 90.15 A 10.055 10.055 0 0 0 1127.281 86.108 A 13.414 13.414 0 0 0 1127.7 84 L 1131 57.9 A 13.466 13.466 0 0 0 1131.089 56.777 Q 1131.196 53.781 1129.8 51.75 Q 1128.26 49.51 1125.542 49.361 A 7.178 7.178 0 0 0 1125.15 49.35 A 7.047 7.047 0 0 0 1121.114 50.632 A 9.156 9.156 0 0 0 1120.425 51.15 A 8.605 8.605 0 0 0 1117.724 55.175 A 10.861 10.861 0 0 0 1117.5 55.95 Z" id="20" vector-effect="non-scaling-stroke"/>
		<path d="M 1246.2 56.25 L 1242.6 85.5 A 47.122 47.122 0 0 1 1241.037 93.189 Q 1239.819 97.274 1237.881 100.46 A 23.548 23.548 0 0 1 1235.1 104.175 Q 1229.1 110.7 1219.05 110.7 A 18.299 18.299 0 0 1 1213.638 109.859 A 21.463 21.463 0 0 1 1212.375 109.425 A 11.44 11.44 0 0 1 1207.557 105.925 A 14.451 14.451 0 0 1 1206.75 104.85 Q 1206.464 104.422 1206.178 104.538 A 0.397 0.397 0 0 0 1206.15 104.55 A 0.508 0.508 0 0 0 1205.885 104.876 Q 1205.857 104.971 1205.851 105.089 A 1.259 1.259 0 0 0 1205.85 105.15 L 1202.1 135.6 Q 1201.95 136.35 1201.425 136.875 A 1.733 1.733 0 0 1 1200.173 137.4 A 2.124 2.124 0 0 1 1200.15 137.4 L 1183.05 137.4 A 1.732 1.732 0 0 1 1182.49 137.314 A 1.443 1.443 0 0 1 1181.85 136.875 A 1.362 1.362 0 0 1 1181.512 135.961 Q 1181.513 135.837 1181.532 135.705 A 2.054 2.054 0 0 1 1181.55 135.6 L 1194 34.2 Q 1194.15 33.45 1194.675 32.925 A 1.733 1.733 0 0 1 1195.927 32.401 A 2.124 2.124 0 0 1 1195.95 32.4 L 1213.05 32.4 A 1.732 1.732 0 0 1 1213.61 32.487 A 1.443 1.443 0 0 1 1214.25 32.925 A 1.362 1.362 0 0 1 1214.588 33.839 Q 1214.588 33.964 1214.568 34.096 A 2.054 2.054 0 0 1 1214.55 34.2 L 1214.25 36.6 L 1214.25 36.75 L 1214.325 36.825 L 1214.4 36.9 A 1.188 1.188 0 0 0 1214.861 36.799 Q 1215.219 36.649 1215.621 36.275 A 4.903 4.903 0 0 0 1215.75 36.15 Q 1221.3 31.2 1228.8 31.2 A 24.1 24.1 0 0 1 1233.899 31.706 Q 1237.148 32.409 1239.559 34.092 A 13.361 13.361 0 0 1 1242.075 36.375 A 17.161 17.161 0 0 1 1245.428 42.695 Q 1246.5 46.273 1246.5 50.85 A 67.064 67.064 0 0 1 1246.481 52.482 Q 1246.438 54.247 1246.296 55.519 A 17.874 17.874 0 0 1 1246.2 56.25 Z M 1211.55 57.9 L 1208.4 83.85 Q 1207.95 87.75 1209.525 90.15 A 5.08 5.08 0 0 0 1213.214 92.48 A 7.305 7.305 0 0 0 1214.25 92.55 A 6.867 6.867 0 0 0 1219.334 90.406 A 8.742 8.742 0 0 0 1219.575 90.15 A 9.854 9.854 0 0 0 1221.637 86.512 A 13.762 13.762 0 0 0 1222.2 83.85 L 1225.5 57.9 A 14.616 14.616 0 0 0 1225.587 56.784 Q 1225.642 55.341 1225.374 54.128 A 7.127 7.127 0 0 0 1224.3 51.6 Q 1222.65 49.2 1219.5 49.2 A 6.656 6.656 0 0 0 1214.67 51.24 A 9.038 9.038 0 0 0 1214.325 51.6 A 10.505 10.505 0 0 0 1212.259 55.082 A 14.638 14.638 0 0 0 1211.55 57.9 Z" id="22" vector-effect="non-scaling-stroke"/>
		<path d="M 1293.9 32.4 L 1311 32.4 A 1.732 1.732 0 0 1 1311.56 32.487 A 1.443 1.443 0 0 1 1312.2 32.925 A 1.362 1.362 0 0 1 1312.538 33.839 Q 1312.538 33.964 1312.518 34.096 A 2.054 2.054 0 0 1 1312.5 34.2 L 1303.5 107.7 Q 1303.35 108.45 1302.825 108.975 A 1.733 1.733 0 0 1 1301.573 109.5 A 2.124 2.124 0 0 1 1301.55 109.5 L 1284.45 109.5 A 1.732 1.732 0 0 1 1283.89 109.414 A 1.443 1.443 0 0 1 1283.25 108.975 A 1.362 1.362 0 0 1 1282.912 108.061 Q 1282.913 107.937 1282.932 107.805 A 2.054 2.054 0 0 1 1282.95 107.7 L 1283.55 103.5 Q 1283.55 102.9 1283.25 102.9 Q 1282.979 102.9 1282.707 103.269 A 2.121 2.121 0 0 0 1282.65 103.35 A 22.826 22.826 0 0 1 1282.565 103.465 Q 1277.32 110.512 1268.712 110.696 A 21.706 21.706 0 0 1 1268.25 110.7 A 23.495 23.495 0 0 1 1263.309 110.215 Q 1258.254 109.127 1255.35 105.6 Q 1251.817 101.31 1251.256 94.152 A 35.892 35.892 0 0 1 1251.15 91.35 A 79.066 79.066 0 0 1 1251.169 89.579 Q 1251.225 87.075 1251.45 85.5 L 1255.05 56.4 Q 1256.105 47.748 1259.276 41.991 A 23.38 23.38 0 0 1 1262.325 37.65 A 19.023 19.023 0 0 1 1274.361 31.437 A 27.09 27.09 0 0 1 1278 31.2 A 17.065 17.065 0 0 1 1282.983 31.883 A 12.208 12.208 0 0 1 1290.6 38.55 A 2.415 2.415 0 0 0 1290.725 38.723 Q 1290.948 39 1291.125 39 A 0.198 0.198 0 0 0 1291.265 38.936 Q 1291.382 38.82 1291.474 38.496 A 3.12 3.12 0 0 0 1291.5 38.4 L 1291.95 34.2 Q 1292.1 33.45 1292.625 32.925 A 1.733 1.733 0 0 1 1293.877 32.401 A 2.124 2.124 0 0 1 1293.9 32.4 Z M 1285.95 83.85 L 1289.1 58.05 A 14.616 14.616 0 0 0 1289.187 56.934 Q 1289.242 55.491 1288.974 54.278 A 7.127 7.127 0 0 0 1287.9 51.75 Q 1286.36 49.51 1283.642 49.361 A 7.178 7.178 0 0 0 1283.25 49.35 A 6.656 6.656 0 0 0 1278.42 51.39 A 9.038 9.038 0 0 0 1278.075 51.75 A 9.854 9.854 0 0 0 1276.013 55.389 A 13.762 13.762 0 0 0 1275.45 58.05 L 1272.15 83.85 A 14.616 14.616 0 0 0 1272.063 84.967 Q 1272.008 86.41 1272.276 87.623 A 7.127 7.127 0 0 0 1273.35 90.15 Q 1274.89 92.391 1277.608 92.54 A 7.178 7.178 0 0 0 1278 92.55 A 6.656 6.656 0 0 0 1282.83 90.511 A 9.038 9.038 0 0 0 1283.175 90.15 A 10.505 10.505 0 0 0 1285.241 86.668 A 14.638 14.638 0 0 0 1285.95 83.85 Z" id="23" vector-effect="non-scaling-stroke"/>
		<path d="M 1358.85 32.4 L 1375.95 32.4 A 1.732 1.732 0 0 1 1376.51 32.487 A 1.443 1.443 0 0 1 1377.15 32.925 A 1.362 1.362 0 0 1 1377.488 33.839 Q 1377.488 33.964 1377.468 34.096 A 2.054 2.054 0 0 1 1377.45 34.2 L 1368.6 105.9 A 60.239 60.239 0 0 1 1366.462 116.443 Q 1363.659 125.644 1357.95 131.55 A 25.663 25.663 0 0 1 1348.634 137.542 Q 1344.524 139.14 1339.366 139.889 A 69.181 69.181 0 0 1 1329.45 140.55 Q 1325.4 140.55 1323.3 140.4 A 2.62 2.62 0 0 1 1322.68 140.28 Q 1321.648 139.931 1321.77 138.677 A 3.33 3.33 0 0 1 1321.8 138.45 L 1323.6 123.75 A 3.46 3.46 0 0 1 1323.762 123.092 Q 1324.213 121.857 1325.55 122.1 A 62.537 62.537 0 0 0 1327.169 122.137 Q 1334.557 122.204 1338.825 120.375 A 14.911 14.911 0 0 0 1342.443 118.216 A 11.912 11.912 0 0 0 1345.575 114.3 Q 1347.6 110.25 1348.35 103.65 A 1.33 1.33 0 0 0 1348.374 103.57 Q 1348.461 103.241 1348.256 103.205 A 0.32 0.32 0 0 0 1348.2 103.2 Q 1347.929 103.2 1347.657 103.569 A 2.121 2.121 0 0 0 1347.6 103.65 A 19.46 19.46 0 0 1 1344.263 106.707 A 15.608 15.608 0 0 1 1340.55 108.675 A 24.877 24.877 0 0 1 1336.82 109.733 A 18.742 18.742 0 0 1 1333.2 110.1 A 23.87 23.87 0 0 1 1328.195 109.61 Q 1325.13 108.952 1322.842 107.413 A 12.796 12.796 0 0 1 1320.225 105.075 A 16.591 16.591 0 0 1 1317.036 99.074 Q 1315.95 95.511 1315.95 90.9 A 40.339 40.339 0 0 1 1316.163 86.84 A 47.65 47.65 0 0 1 1316.4 84.9 L 1319.85 56.4 Q 1320.948 47.509 1324.375 41.63 A 23.724 23.724 0 0 1 1327.2 37.725 A 19.281 19.281 0 0 1 1339.667 31.393 A 27.14 27.14 0 0 1 1342.95 31.2 A 18.6 18.6 0 0 1 1347.818 31.795 A 11.962 11.962 0 0 1 1355.55 37.95 Q 1355.836 38.379 1356.122 38.263 A 0.397 0.397 0 0 0 1356.15 38.25 A 0.508 0.508 0 0 0 1356.415 37.924 Q 1356.443 37.829 1356.449 37.712 A 1.259 1.259 0 0 0 1356.45 37.65 L 1356.9 34.2 Q 1357.05 33.45 1357.575 32.925 A 1.733 1.733 0 0 1 1358.827 32.401 A 2.124 2.124 0 0 1 1358.85 32.4 Z M 1350.9 83.25 L 1354.05 57.9 Q 1354.302 55.8 1353.872 54.123 A 7.009 7.009 0 0 0 1352.775 51.75 Q 1351.136 49.47 1348.346 49.356 A 7.269 7.269 0 0 0 1348.05 49.35 A 6.656 6.656 0 0 0 1343.22 51.39 A 9.038 9.038 0 0 0 1342.875 51.75 A 10.055 10.055 0 0 0 1340.669 55.793 A 13.414 13.414 0 0 0 1340.25 57.9 L 1337.1 83.25 A 15.306 15.306 0 0 0 1337.014 84.303 Q 1336.876 87.312 1338.091 89.268 A 6.19 6.19 0 0 0 1338.225 89.475 A 5.107 5.107 0 0 0 1341.959 91.738 A 7.578 7.578 0 0 0 1342.95 91.8 A 6.829 6.829 0 0 0 1347.699 89.897 A 9.314 9.314 0 0 0 1348.2 89.4 A 9.964 9.964 0 0 0 1350.555 85.068 A 13.148 13.148 0 0 0 1350.9 83.25 Z" id="24" vector-effect="non-scaling-stroke"/>
		<path d="M 1434.75 77.55 L 1402.65 77.55 A 0.716 0.716 0 0 0 1402.14 77.761 A 0.939 0.939 0 0 0 1402.125 77.775 Q 1401.9 78 1401.9 78.3 L 1401.15 83.85 A 12.955 12.955 0 0 0 1401.063 84.984 Q 1401.015 86.486 1401.357 87.761 A 7.335 7.335 0 0 0 1402.425 90.075 A 5.91 5.91 0 0 0 1404.107 91.723 Q 1405.313 92.486 1406.882 92.545 A 7.07 7.07 0 0 0 1407.15 92.55 A 6.736 6.736 0 0 0 1411.875 90.675 A 10.495 10.495 0 0 0 1414.557 86.648 A 12.614 12.614 0 0 0 1414.8 85.95 A 2.862 2.862 0 0 1 1415.229 85.2 Q 1415.839 84.45 1416.9 84.45 L 1433.55 85.35 A 1.694 1.694 0 0 1 1434.012 85.41 A 1.19 1.19 0 0 1 1434.675 85.875 A 1.403 1.403 0 0 1 1434.905 86.419 Q 1434.965 86.716 1434.929 87.081 A 3.323 3.323 0 0 1 1434.9 87.3 A 37.032 37.032 0 0 1 1432.383 95.172 A 25.491 25.491 0 0 1 1425 104.775 A 25.977 25.977 0 0 1 1415.592 109.399 Q 1410.806 110.7 1404.9 110.7 A 40.627 40.627 0 0 1 1397.784 110.117 Q 1393.891 109.424 1390.801 107.906 A 19.765 19.765 0 0 1 1386.6 105.15 Q 1380.15 99.6 1380.15 89.55 A 17.264 17.264 0 0 1 1380.169 88.791 Q 1380.207 87.921 1380.326 86.692 A 82.338 82.338 0 0 1 1380.45 85.5 L 1384.05 56.4 A 29.481 29.481 0 0 1 1386.977 46.412 A 26.336 26.336 0 0 1 1393.65 38.1 A 29.123 29.123 0 0 1 1407.387 31.825 A 40.51 40.51 0 0 1 1414.65 31.2 Q 1423.371 31.2 1429.217 34.409 A 20.064 20.064 0 0 1 1432.875 36.975 A 18.996 18.996 0 0 1 1439.189 49.226 A 26.964 26.964 0 0 1 1439.4 52.65 A 12.333 12.333 0 0 1 1439.382 53.256 Q 1439.34 54.097 1439.197 55.493 A 107.438 107.438 0 0 1 1439.1 56.4 L 1436.7 75.75 Q 1436.55 76.5 1436.025 77.025 A 1.733 1.733 0 0 1 1434.773 77.55 A 2.124 2.124 0 0 1 1434.75 77.55 Z M 1404.45 57.9 L 1403.7 63.75 A 1.376 1.376 0 0 0 1403.725 64.024 Q 1403.811 64.446 1404.196 64.494 A 0.84 0.84 0 0 0 1404.3 64.5 L 1416.9 64.5 A 0.716 0.716 0 0 0 1417.41 64.29 A 0.939 0.939 0 0 0 1417.425 64.275 Q 1417.65 64.05 1417.65 63.75 L 1418.4 57.9 Q 1418.652 55.8 1418.222 54.123 A 7.009 7.009 0 0 0 1417.125 51.75 Q 1415.486 49.47 1412.696 49.356 A 7.269 7.269 0 0 0 1412.4 49.35 A 6.829 6.829 0 0 0 1407.651 51.254 A 9.314 9.314 0 0 0 1407.15 51.75 A 9.964 9.964 0 0 0 1404.795 56.083 A 13.148 13.148 0 0 0 1404.45 57.9 Z" id="25" vector-effect="non-scaling-stroke"/>
	</g>
</svg>
